HIERARCHY
ROOT Hips
{
  OFFSET 2.26061 22.2878 23.7974
  CHANNELS 6 Xposition Yposition Zposition Zrotation Xrotation Yrotation
  JOINT LeftUpLeg
  {
    OFFSET 8.64259 1.95398 -2.38835
    CHANNELS 3 Zrotation Xrotation Yrotation
    JOINT LeftLeg
    {
      OFFSET 43.7702 0 0
      CHANNELS 3 Zrotation Xrotation Yrotation
      JOINT LeftFoot
      {
        OFFSET 40.6238 0 0
        CHANNELS 3 Zrotation Xrotation Yrotation
        JOINT LeftToeBase
        {
          OFFSET 12.7242 0 0
          CHANNELS 3 Zrotation Xrotation Yrotation
          End Site
          {
            OFFSET 0 0 0
          }
        }
      }
    }
  }
  JOINT RightUpLeg
  {
    OFFSET -8.2249 1.95398 -2.59336
    CHANNELS 3 Zrotation Xrotation Yrotation
    JOINT RightLeg
    {
      OFFSET 43.5653 0 0
      CHANNELS 3 Zrotation Xrotation Yrotation
      JOINT RightFoot
      {
        OFFSET 40.6238 0 0
        CHANNELS 3 Zrotation Xrotation Yrotation
        JOINT RightToeBase
        {
          OFFSET 12.7242 0 0
          CHANNELS 3 Zrotation Xrotation Yrotation
          End Site
          {
            OFFSET 0 0 0
          }
        }
      }
    }
  }
  JOINT Spine
  {
    OFFSET 0.165834 0.87714 6.61349
    CHANNELS 3 Zrotation Xrotation Yrotation
    JOINT Spine1
    {
      OFFSET 7.38963 1.71661e-005 0
      CHANNELS 3 Zrotation Xrotation Yrotation
      JOINT Spine2
      {
        OFFSET 11.9445 1.14441e-005 0
        CHANNELS 3 Zrotation Xrotation Yrotation
        JOINT Spine3
        {
          OFFSET 14.7254 4.19617e-005 0
          CHANNELS 3 Zrotation Xrotation Yrotation
          JOINT Spine4
          {
            OFFSET 10.9679 0 0
            CHANNELS 3 Zrotation Xrotation Yrotation
            JOINT RightShoulder
            {
              OFFSET 2.46616 -1.6653 3.69651
              CHANNELS 3 Zrotation Xrotation Yrotation
              JOINT RightArm
              {
                OFFSET 13.0012 0 0
                CHANNELS 3 Zrotation Xrotation Yrotation
                JOINT RightForeArm
                {
                  OFFSET 28.7848 1.52588e-005 0
                  CHANNELS 3 Zrotation Xrotation Yrotation
                  JOINT RightHand
                  {
                    OFFSET 26.5688 1.52588e-005 0
                    CHANNELS 3 Zrotation Xrotation Yrotation
                    End Site
                    {
                      OFFSET 0 0 0
                    }
                  }
                }
              }
            }
            JOINT LeftShoulder
            {
              OFFSET 2.38034 -1.29275 -3.7523
              CHANNELS 3 Zrotation Xrotation Yrotation
              JOINT LeftArm
              {
                OFFSET 16.3182 6.10351e-005 0
                CHANNELS 3 Zrotation Xrotation Yrotation
                JOINT LeftForeArm
                {
                  OFFSET 27.0901 0 0
                  CHANNELS 3 Zrotation Xrotation Yrotation
                  JOINT LeftHand
                  {
                    OFFSET 24.5451 1.52588e-005 0
                    CHANNELS 3 Zrotation Xrotation Yrotation
                    End Site
                    {
                      OFFSET 0 0 0
                    }
                  }
                }
              }
            }
            JOINT Neck
            {
              OFFSET 5.0226 -0.0266342 0
              CHANNELS 3 Zrotation Xrotation Yrotation
              JOINT Head
              {
                OFFSET 6.69363 2.86102e-005 0
                CHANNELS 3 Zrotation Xrotation Yrotation
                End Site
                {
                  OFFSET 0 0 0
                }
              }
            }
          }
        }
      }
    }
  }
}
MOTION
Frames:	17
Frame Time:	0.0416667
-57.9751 53.4621 -4.60191 97.7323 -72.1719 106.605 164.697 50.4789 98.159 -127.146 30.7933 -0.173497 31.6335 -13.3047 -4.98815 69.6735 42.9213 21.9388 120.132 69.6515 131.829 -114.493 10.4006 -3.93902 82.9782 -12.1371 -6.53764 42.8344 0.528212 -2.97515 0.554201 12.5646 -92.4203 1.72374 0.178304 -4.71446 -9.95572 -0.0291274 -4.71774 -32.4282 1.58555 -4.44398 -12.4155 1.58555 -4.44398 89.6802 -38.4634 -104.443 5.25965 2.89839 -20.5029 -9.34278 -27.0294 -46.7802 -19.7058 -2.60615 9.85477 -105.134 -45.1863 54.4696 -27.3401 12.9626 23.6727 -0.478588 3.20096 -35.6119 17.9995 0.779708 0.470676 6.8083 -9.16762 7.77258 27.4869 -11.5322 -4.57988 
-57.987 53.4328 -4.70613 99.5167 -72.0542 108.503 164.889 50.1537 98.1311 -127.386 30.8659 -0.182348 32.5145 -12.7691 -3.67824 67.4281 42.7677 25.7781 121.178 69.328 130.822 -114.49 10.1983 -3.9177 82.6405 -12.0627 -6.53383 42.1839 0.489152 -3.40727 0.581487 12.6262 -92.4454 1.60119 0.225543 -4.76088 -10.0785 0.0160405 -4.76618 -32.55 1.64452 -4.47411 -12.5374 1.64453 -4.47412 89.7932 -38.3605 -104.276 5.45222 2.89073 -20.4241 -9.64753 -26.9191 -46.9607 -19.4847 -2.4543 9.15233 -105.025 -44.957 54.5214 -27.8725 13.0649 23.662 -1.19674 2.37438 -35.5511 19.5516 0.718124 -0.199964 6.88443 -8.89717 7.80983 27.8137 -11.2965 -4.58096 
-57.9491 53.4787 -4.73453 100.327 -71.8715 109.693 165.013 49.747 98.327 -127.285 30.4402 -0.144954 31.666 -13.0341 -2.63314 67.5618 42.8084 25.5978 121.512 68.8507 130.344 -114.407 9.77189 -3.8915 82.1448 -11.8514 -6.50074 43.4942 0.488038 -3.84799 0.579679 12.6562 -92.4948 1.5399 0.204364 -4.85698 -10.1401 -0.00934833 -4.86126 -32.6089 1.6531 -4.57218 -12.5962 1.65311 -4.57219 89.6065 -38.1811 -104.662 5.47289 2.92113 -20.0636 -9.86546 -26.8809 -47.5238 -19.5835 -2.509 9.39686 -104.906 -44.8897 54.6653 -28.0998 12.9238 23.6893 -1.15337 2.34257 -35.5495 19.3442 0.783156 0.182392 6.61727 -8.97025 8.13442 27.9366 -11.5198 -4.95036 
-57.8951 53.5093 -4.78823 102.141 -71.6749 112.056 164.426 49.0658 99.0685 -127.4 30.444 -0.189201 32.1005 -12.7897 -2.78137 67.4737 43.115 26.2709 122.32 67.9583 129.481 -114.204 9.69872 -3.83691 81.9303 -11.8002 -6.4822 43.4131 0.474701 -4.03435 0.626707 12.7225 -92.5553 1.40756 0.277999 -4.97108 -10.2729 0.059226 -4.97848 -32.7391 1.75755 -4.65902 -12.7265 1.75755 -4.65904 89.622 -38.255 -104.611 5.64141 2.98636 -20.0891 -9.88136 -26.8876 -47.5438 -19.4322 -2.48121 9.32874 -104.826 -44.7381 54.7115 -28.1285 13.0521 23.8096 -1.26726 2.23776 -35.6389 19.3361 0.765451 0.0921736 6.4309 -8.92129 7.80769 28.094 -11.3459 -4.71723 
-57.8196 53.561 -4.90232 104.175 -71.24 114.716 163.665 48.2221 99.7799 -127.471 30.5424 -0.26695 32.0017 -12.855 -2.15301 66.8564 42.4885 26.3858 123.27 66.9729 128.334 -114.028 9.52745 -3.78287 81.8835 -11.8052 -6.47839 44.0296 0.501351 -3.7806 0.644968 12.8079 -92.6537 1.23481 0.280893 -5.16058 -10.4464 0.0538049 -5.16793 -32.9072 1.81706 -4.83905 -12.8945 1.81706 -4.83907 89.5417 -38.0577 -104.815 5.73582 3.07102 -19.8571 -9.89061 -26.7844 -47.5964 -19.5111 -2.46359 9.18553 -105.024 -44.897 54.4941 -27.9931 13.0324 23.8913 -1.40268 2.03158 -35.597 19.4626 0.73357 -0.0993005 6.38291 -8.88094 7.91298 28.0366 -11.2954 -4.6299 
-57.7623 53.5958 -5.00773 106.465 -70.6048 117.769 162.633 47.2046 100.741 -127.637 30.5547 -0.353257 32.2737 -12.6908 -2.39337 66.8945 42.609 26.516 124.299 65.5011 127.033 -113.687 10.1445 -3.68779 83.0519 -12.3481 -6.53146 41.4619 0.514997 -2.58064 0.6805 12.9122 -92.7527 1.0252 0.319045 -5.34938 -10.6567 0.0836459 -5.35821 -33.1123 1.90999 -5.00786 -13.0996 1.90999 -5.00787 89.4551 -38.2151 -104.919 5.53564 2.87504 -19.7506 -9.62237 -26.41 -47.6017 -19.5413 -2.4962 9.33641 -104.866 -44.7066 54.6375 -28.0553 12.9958 23.8426 -1.27633 2.20856 -35.448 19.2835 0.671363 -0.387757 6.44052 -8.83421 7.66158 28.1165 -11.168 -4.47108 
-57.6399 53.66 -5.1024 109.119 -70.1218 121.379 161.832 45.8981 101.797 -127.681 30.5797 -0.433822 32.0934 -12.8203 -2.3246 68.7946 43.7458 24.8896 125.564 63.8391 125.693 -113.242 10.3801 -3.5679 83.7867 -12.728 -6.54735 40.8401 0.534103 -1.6821 0.73595 13.0525 -92.8589 0.744205 0.39633 -5.54907 -10.9386 0.15211 -5.56108 -33.3887 2.04352 -5.17533 -13.3761 2.04352 -5.17534 89.5267 -38.1653 -104.808 5.70272 3.03044 -20.0384 -9.79127 -26.5347 -47.6803 -19.4081 -2.45101 9.16457 -104.503 -44.6015 55.1272 -28.1438 13.1863 23.6264 -1.45123 2.09932 -35.3942 19.4126 0.653142 -0.506818 7.25212 -8.75924 7.394 27.4561 -11.0435 -4.40329 
-57.4599 53.7605 -5.17156 111.202 -69.513 124.575 160.819 44.7398 103.032 -127.822 30.5789 -0.509055 31.9391 -12.9211 -2.46685 69.7385 44.058 23.7141 126.318 62.2084 124.696 -112.864 10.1083 -3.43906 83.6515 -12.715 -6.52768 41.4586 0.540849 -1.98307 0.807949 13.1568 -93.0092 0.534751 0.48888 -5.83445 -11.1492 0.232086 -5.85025 -33.5913 2.21723 -5.42012 -13.5787 2.21724 -5.4201 89.6758 -38.2064 -104.531 5.66643 2.96467 -20.1882 -9.75128 -26.6985 -47.7658 -19.5686 -2.47451 9.20954 -104.639 -44.5928 54.9211 -28.1495 13.1392 23.6033 -1.51197 2.0207 -35.2468 19.4789 0.630594 -0.635396 7.32233 -8.73983 7.4378 27.3226 -11.0429 -4.44554 
-57.36 53.8182 -5.27837 113.589 -68.5362 127.85 159.412 43.3142 104.028 -127.932 32.3861 -0.780797 31.9108 -13.6859 -2.11806 68.9929 43.4086 23.9738 127.385 60.5715 123.232 -112.602 9.92714 -3.32631 83.6085 -12.7261 -6.51082 41.2406 0.533945 -1.98857 0.83669 13.3121 -93.1337 0.221909 0.507884 -6.07061 -11.4632 0.240718 -6.087 -33.8975 2.306 -5.63993 -13.8849 2.306 -5.63993 89.6163 -38.247 -104.624 5.67738 3.16289 -20.3476 -9.54063 -26.7912 -47.305 -19.9609 -2.44667 8.84884 -104.31 -44.522 55.3766 -28.165 13.3622 23.4616 -1.55029 2.03542 -35.4232 19.2325 0.632088 -0.584063 7.67884 -8.69996 6.95513 27.2115 -10.8016 -3.98436 
-57.2677 53.8675 -5.42249 115.676 -67.4719 131.03 158.496 41.8313 105.076 -128.081 31.0249 -0.776116 31.7484 -13.2042 -2.59152 70.0409 44.3182 23.6069 128.044 58.7703 122.151 -112.243 9.90008 -3.19307 83.2982 -12.6666 -6.48492 41.0401 0.536584 -1.77571 0.873002 13.4653 -93.2873 -0.0871226 0.531757 -6.36273 -11.7736 0.251791 -6.37988 -34.198 2.41614 -5.91176 -14.1854 2.41614 -5.91177 89.5431 -38.3731 -104.713 5.38875 3.15677 -20.2589 -9.75375 -26.6169 -48.0733 -19.6059 -2.50318 9.34282 -104.298 -44.7071 55.4815 -27.9472 13.3581 23.4041 -1.35426 2.28824 -35.6142 19.0879 0.705855 -0.186109 8.23897 -8.67031 7.21536 26.6649 -10.9402 -4.39299 
-57.178 53.8786 -5.58128 118.016 -66.3634 134.406 157.615 40.1361 105.999 -128.299 30.9163 -0.890454 32.0344 -12.9694 -2.40837 70.2997 44.4414 23.3549 128.955 56.9747 120.954 -111.982 9.72923 -3.03702 83.1059 -12.6535 -6.47333 40.5116 0.517385 -1.79976 0.908978 13.6052 -93.4362 -0.369748 0.556713 -6.64564 -12.0576 0.264357 -6.6636 -34.472 2.52451 -6.17452 -14.4594 2.52451 -6.17452 89.517 -38.4179 -104.745 5.33081 3.07771 -20.2291 -9.89781 -26.7082 -48.0371 -19.5457 -2.4969 9.34662 -104.536 -44.7069 55.1271 -28.1196 13.4549 23.641 -0.932421 3.12095 -35.9433 20.1682 1.1379 1.79698 7.33632 -8.75783 6.81689 27.4913 -10.7936 -3.86831 
-57.0827 53.9482 -5.68188 119.451 -65.3085 136.924 156.612 38.6703 106.86 -128.494 30.9927 -1.01918 32.4267 -12.7592 -2.30987 69.18 43.921 24.4845 129.425 55.184 120.095 -111.594 9.68391 -2.88142 83.1147 -12.7043 -6.454 40.9574 0.537389 -1.69029 0.972039 13.7026 -93.6255 -0.567143 0.619192 -7.00608 -12.2569 0.31102 -7.02641 -34.6583 2.6918 -6.50014 -14.6456 2.69179 -6.50015 89.7156 -38.1933 -104.465 5.56456 3.1444 -19.9886 -10.2449 -26.9166 -48.2565 -19.5279 -2.50135 9.38784 -105.028 -44.7089 54.3988 -28.1618 13.4319 23.8462 -1.01367 2.98704 -35.9965 20.1425 1.14557 1.83467 6.82694 -8.97028 7.36799 27.6954 -11.2513 -4.47627 
-56.9971 53.9904 -5.82384 120.741 -64.1202 139.322 155.484 37.1511 107.845 -128.672 30.9801 -1.14648 32.3244 -12.7872 -2.2035 69.5414 43.7399 23.5407 129.841 53.4199 119.256 -111.293 9.33942 -2.74617 82.8491 -12.6482 -6.43803 41.933 0.565821 -1.80516 1.00642 13.8405 -93.7952 -0.846796 0.634834 -7.32897 -12.5383 0.31255 -7.34967 -34.9269 2.80312 -6.80399 -14.9142 2.80311 -6.80399 89.4454 -38.2755 -104.917 5.17923 3.09796 -19.6175 -10.032 -26.4954 -48.2226 -19.8186 -2.53299 9.38877 -105.33 -44.8834 54.0359 -27.9563 13.4082 23.9474 -0.853993 3.16983 -36.1329 20.1278 1.19535 2.08801 6.34025 -8.94544 7.29303 28.3738 -11.1783 -4.33819 
-56.9385 54.0046 -5.91697 121.782 -63.0777 141.318 154.479 35.7153 108.626 -128.797 31.3263 -1.29852 32.5707 -12.7735 -2.08462 69.6647 44.0436 23.8219 130.143 51.8926 118.63 -111.029 9.46169 -2.59119 82.6425 -12.624 -6.42432 41.0026 0.55051 -1.41441 1.05784 13.9519 -93.9409 -1.0717 0.691861 -7.6035 -12.7648 0.35754 -7.6264 -35.1427 2.93945 -7.04927 -15.13 2.93944 -7.04929 89.5945 -38.1964 -104.678 5.40822 3.16972 -19.5137 -10.0539 -26.2904 -48.5058 -19.6814 -2.5808 9.72057 -105.428 -44.867 53.8831 -27.8876 13.4492 24.0245 -0.793245 3.27854 -36.1168 19.9707 1.17488 2.03052 6.08609 -9.0039 7.22871 28.4394 -11.1552 -4.13408 
-56.8991 54.0318 -6.00944 122.449 -62.1189 142.913 153.53 34.4567 109.37 -128.925 31.3306 -1.41654 32.5899 -12.7417 -2.02742 69.8421 44.0995 23.6006 130.334 50.4541 118.085 -110.829 9.08361 -2.45493 82.6012 -12.6145 -6.40842 41.3058 0.535922 -1.99205 1.08289 14.0578 -94.0668 -1.28635 0.703795 -7.84268 -12.9809 0.359035 -7.86587 -35.3486 3.02217 -7.2743 -15.3359 3.02217 -7.27431 89.5215 -38.2851 -104.779 5.28125 3.20306 -19.4531 -10.3537 -26.5684 -48.6861 -19.871 -2.53305 9.36303 -105.131 -44.7992 54.2895 -27.9428 13.344 23.9033 -0.708919 3.35078 -36.1142 20.1685 1.16998 1.94549 5.86602 -9.03726 7.2979 28.4692 -11.3073 -4.54869 
-56.7815 54.0699 -6.03145 122.893 -61.427 144.254 152.824 33.3686 110.109 -129.001 31.2953 -1.50586 32.7223 -12.6857 -2.47144 69.1488 43.8058 24.3499 130.476 49.2095 117.739 -110.605 8.81571 -2.32683 82.6565 -12.6607 -6.39823 40.749 0.511437 -2.16207 1.11902 14.1352 -94.1896 -1.44363 0.737322 -8.07484 -13.1395 0.382404 -8.09924 -35.4974 3.12336 -7.4862 -15.4847 3.12337 -7.48622 89.4831 -38.2187 -104.868 5.12113 3.13873 -19.4412 -10.2618 -26.1994 -48.5051 -19.42 -2.47659 9.30057 -105.133 -44.7768 54.2753 -28.0875 13.1682 23.9614 -0.488317 3.44429 -36.1987 19.4134 1.09354 1.77744 6.0587 -8.97646 7.64042 28.0017 -11.3245 -4.6396 
-56.7376 54.1558 -6.05409 123.314 -60.8691 145.335 152.417 32.4693 110.569 -129.029 31.5327 -1.58594 33.0088 -12.6065 -1.94377 68.8783 43.6165 24.5246 130.763 48.2724 117.44 -110.373 8.68961 -2.1904 82.3095 -12.5575 -6.37677 40.4839 0.500731 -2.21426 1.14695 14.2157 -94.2622 -1.60537 0.772617 -8.20942 -13.3021 0.411807 -8.23523 -35.6544 3.19714 -7.60433 -15.6417 3.19715 -7.60433 89.4949 -38.1366 -104.873 5.34802 3.2909 -19.6409 -10.4484 -26.2312 -48.3105 -18.8242 -2.36678 9.02179 -105.003 -44.5643 54.3661 -28.2199 13.3504 24.0123 -0.583424 3.49789 -36.1931 20.2792 1.11559 1.6467 5.81132 -9.05481 7.273 28.6249 -11.3039 -4.4745 
